<svg xmlns="http://www.w3.org/2000/svg" viewBox="0 0 83.18 141.72"><defs><style>.cls-1{fill:#01736c;}.cls-2{fill:#05514f;}.cls-3{fill:#b92738;}</style></defs><title>Recurso 5</title><g id="Capa_2" data-name="Capa 2"><g id="Capa_1-2" data-name="Capa 1"><polygon class="cls-1" points="41.59 0 3.08 30.81 0 141.72 83.18 141.72 80.1 30.81 41.59 0"/><path class="cls-2" d="M10.83,130.94H72.35l-3-93.23L41.59,14.34,13.84,37.71ZM75.53,134H7.65L10.8,36.23,41.59,10.31,72.38,36.23Z"/><rect class="cls-2" x="40.05" y="26.68" width="3.08" height="20.92"/><rect class="cls-3" x="16.87" y="92.37" width="49.45" height="6.81"/><rect class="cls-3" x="16.87" y="104.12" width="49.45" height="6.81"/><rect class="cls-3" x="16.87" y="99.18" width="49.45" height="1.4"/><rect class="cls-3" x="16.87" y="90.97" width="49.45" height="1.4"/><rect class="cls-3" x="16.87" y="110.94" width="49.45" height="1.4"/><rect class="cls-3" x="16.87" y="102.73" width="49.45" height="1.4"/><rect class="cls-3" x="16.87" y="122.69" width="49.45" height="1.4"/><rect class="cls-3" x="16.87" y="114.48" width="49.45" height="1.4"/><rect class="cls-3" x="16.87" y="115.88" width="49.45" height="6.81"/></g></g></svg>