<?xml version="1.0" encoding="UTF-8"?>
<svg id="Capa_2" data-name="Capa 2" xmlns="http://www.w3.org/2000/svg" viewBox="0 0 195.23 126.17">
  <defs>
    <style>
      .cls-1 {
        fill: #337b6b;
      }
    </style>
  </defs>
  <g id="Capa_1-2" data-name="Capa 1">
    <g>
      <g>
        <path class="cls-1" d="M79.28,31.3c-.82,0-1.49.67-1.49,1.49v13.04c0,.82.67,1.49,1.49,1.49s1.49-.67,1.49-1.49v-13.04c0-.82-.67-1.49-1.49-1.49Z"/>
        <path class="cls-1" d="M125.75,9.69L99.66.35c-1.32-.47-2.78-.47-4.1,0l-26.08,9.33c-2.42.87-4.04,3.18-4.04,5.75v20.67c0,7.07,3.04,13.59,9.29,19.95,4.68,4.76,11.19,9.43,19.92,14.28.92.51,1.94.76,2.97.76s2.05-.25,2.97-.76h0c8.72-4.85,15.24-9.52,19.92-14.28,6.25-6.36,9.29-12.89,9.29-19.95V15.44c0-2.57-1.63-4.89-4.04-5.75ZM126.76,36.11c0,6.23-2.75,12.06-8.42,17.82-4.47,4.55-10.76,9.05-19.23,13.76-.92.51-2.07.51-2.99,0-8.47-4.71-14.76-9.21-19.23-13.76-5.66-5.76-8.42-11.59-8.42-17.82V15.44c0-1.29.82-2.45,2.03-2.89l26.08-9.33c.33-.12.68-.18,1.03-.18s.7.06,1.03.18l26.08,9.33c1.21.43,2.03,1.6,2.03,2.89v20.67Z"/>
        <path class="cls-1" d="M119.51,25.62l-21.35-8.16c-.34-.13-.72-.13-1.06,0l-21.37,8.16c-.58.22-.96.77-.96,1.39s.38,1.17.96,1.39l21.37,8.16c.17.07.35.1.53.1s.36-.03.53-.1l21.35-8.16c.58-.22.96-.78.96-1.39s-.38-1.17-.96-1.39ZM97.62,33.58l-17.19-6.57,17.19-6.57,17.18,6.57-17.18,6.57Z"/>
        <path class="cls-1" d="M110.48,33.88c-.82,0-1.49.67-1.49,1.49v4.44l-11.37,4.43-11.38-4.42v-4.44c0-.82-.67-1.49-1.49-1.49s-1.49.67-1.49,1.49v5.46c0,.62.38,1.17.95,1.39l12.86,5c.17.07.35.1.53.1s.37-.04.55-.1l12.85-5c.57-.22.95-.77.95-1.39v-5.46c0-.82-.67-1.49-1.49-1.49Z"/>
      </g>
      <g>
        <path class="cls-1" d="M19.73,90.13c-1.86-1.19-3.98-1.78-6.36-1.78-1.39,0-2.64.21-3.76.64-1.12.43-2.1.99-2.95,1.71-.85.71-1.51,1.46-1.98,2.24h-.25v-3.77H0v37h4.68v-11.16l-.25-3.57h.25c.71,1.16,1.83,2.2,3.36,3.13,1.53.93,3.31,1.4,5.34,1.4,2.37,0,4.49-.6,6.36-1.78,1.86-1.19,3.34-2.82,4.42-4.89,1.08-2.07,1.63-4.45,1.63-7.14s-.54-5.06-1.63-7.14c-1.09-2.07-2.56-3.7-4.42-4.89ZM19.96,107.23c-.76,1.44-1.78,2.55-3.05,3.31-1.27.76-2.64,1.15-4.09,1.15s-2.82-.38-4.09-1.15c-1.27-.76-2.31-1.86-3.1-3.29-.8-1.43-1.2-3.13-1.2-5.1s.4-3.67,1.2-5.1c.8-1.43,1.83-2.52,3.1-3.29,1.27-.76,2.64-1.15,4.09-1.15s2.82.38,4.09,1.15c1.27.76,2.29,1.86,3.05,3.29.76,1.43,1.14,3.13,1.14,5.1s-.38,3.63-1.14,5.07Z"/>
        <path class="cls-1" d="M42.92,88.4c-1.05,0-2.09.21-3.1.64-1.02.43-1.92.99-2.72,1.71-.8.71-1.37,1.55-1.7,2.5h-.25v-4.08h-4.42v25.99h4.68v-14.27c0-1.43.3-2.73.92-3.92.61-1.19,1.43-2.14,2.47-2.85,1.03-.71,2.18-1.07,3.43-1.07.68,0,1.34.08,1.98.23.64.15,1.24.37,1.78.64v-5c-.37-.17-.79-.3-1.25-.38-.46-.08-1.06-.13-1.81-.13Z"/>
        <path class="cls-1" d="M66.92,90.06c-1.86-1.14-4.1-1.71-6.71-1.71s-4.76.64-6.66,1.91c-1.9,1.27-3.37,2.96-4.42,5.07-1.05,2.11-1.58,4.4-1.58,6.88,0,2.65.56,5.01,1.68,7.08,1.12,2.07,2.65,3.7,4.6,4.89,1.95,1.19,4.2,1.78,6.74,1.78,2.85,0,5.23-.65,7.15-1.94,1.91-1.29,3.4-2.92,4.45-4.89l-3.92-1.94c-.75,1.29-1.73,2.37-2.95,3.24-1.22.87-2.75,1.3-4.58,1.3-1.46,0-2.84-.35-4.15-1.05-1.31-.7-2.36-1.76-3.18-3.19-.69-1.22-1.09-2.7-1.19-4.43h20.36c.03-.17.06-.38.08-.64.02-.25.02-.52.02-.79,0-2.58-.49-4.88-1.47-6.88-.98-2-2.41-3.58-4.27-4.71ZM52.46,99.36c.16-.77.39-1.49.7-2.17.66-1.44,1.59-2.59,2.8-3.44,1.2-.85,2.62-1.27,4.25-1.27,1.36,0,2.51.22,3.46.66.95.44,1.73,1.01,2.34,1.71.61.7,1.06,1.44,1.35,2.24.29.8.45,1.55.48,2.27h-15.37Z"/>
        <path class="cls-1" d="M88.08,78.26c-1.73,0-3.25.36-4.55,1.07-1.31.71-2.31,1.69-3,2.93-.7,1.24-1.04,2.68-1.04,4.31v2.6h-4.78v4.18h4.78v21.82h4.63v-21.82h6.61v-4.18h-6.61v-2.14c0-1.36.39-2.43,1.17-3.21.78-.78,1.78-1.17,3-1.17.51,0,1.06.07,1.65.2.59.14,1.21.34,1.86.61v-4.59c-.58-.2-1.18-.36-1.81-.46-.63-.1-1.26-.15-1.91-.15Z"/>
        <path class="cls-1" d="M112.92,90.21c-2.02-1.24-4.35-1.86-6.99-1.86s-4.92.61-6.94,1.83-3.59,2.88-4.73,4.97c-1.14,2.09-1.7,4.43-1.7,7.01s.57,4.92,1.7,7.01c1.14,2.09,2.71,3.75,4.73,4.97s4.35,1.84,6.99,1.84,4.92-.61,6.94-1.84c2.02-1.22,3.59-2.88,4.73-4.97,1.14-2.09,1.7-4.43,1.7-7.01s-.57-4.87-1.7-6.96c-1.14-2.09-2.71-3.75-4.73-5ZM113.46,107.31c-.81,1.43-1.89,2.51-3.23,3.26-1.34.75-2.77,1.12-4.3,1.12s-2.96-.37-4.3-1.12c-1.34-.75-2.42-1.84-3.23-3.26-.81-1.43-1.22-3.14-1.22-5.15s.41-3.72,1.22-5.15c.81-1.43,1.9-2.51,3.25-3.26,1.36-.75,2.8-1.12,4.32-1.12s2.91.37,4.25,1.12c1.34.75,2.42,1.83,3.23,3.26s1.22,3.14,1.22,5.15-.41,3.72-1.22,5.15Z"/>
        <path class="cls-1" d="M136.49,88.4c-1.05,0-2.08.21-3.1.64-1.02.43-1.92.99-2.72,1.71-.8.71-1.37,1.55-1.7,2.5h-.25v-4.08h-4.42v25.99h4.68v-14.27c0-1.43.31-2.73.92-3.92.61-1.19,1.43-2.14,2.47-2.85,1.03-.71,2.18-1.07,3.43-1.07.68,0,1.34.08,1.98.23.64.15,1.24.37,1.78.64v-5c-.37-.17-.79-.3-1.25-.38-.46-.08-1.06-.13-1.81-.13Z"/>
        <path class="cls-1" d="M154.9,111.18c-1.19,0-2.07-.34-2.64-1.02-.58-.68-.86-1.73-.86-3.16v-13.66h6.36v-4.18h-6.36v-7.34h-4.68v7.34h-4.58v4.18h4.58v14.78c0,2.28.68,4.09,2.03,5.43,1.36,1.34,3.15,2.01,5.39,2.01.71,0,1.36-.06,1.96-.18.59-.12,1.18-.3,1.75-.54v-4.54c-.47.27-.95.48-1.42.64-.47.15-.98.23-1.53.23Z"/>
        <rect class="cls-1" x="162.94" y="89.16" width="4.68" height="25.99"/>
        <path class="cls-1" d="M165.27,78.1c-.92,0-1.7.31-2.34.94-.64.63-.97,1.4-.97,2.32s.32,1.7.97,2.34c.64.65,1.42.97,2.34.97s1.69-.32,2.31-.97c.63-.65.94-1.43.94-2.34s-.31-1.69-.94-2.32c-.63-.63-1.4-.94-2.31-.94Z"/>
        <path class="cls-1" d="M183.79,88.35c-1.46,0-2.84.2-4.14.61-1.31.41-2.48.99-3.51,1.73-1.03.75-1.91,1.63-2.62,2.65l3.41,2.6c.71-1.09,1.68-1.95,2.9-2.57,1.22-.63,2.54-.94,3.97-.94,1.97,0,3.62.56,4.96,1.68,1.34,1.12,2.01,2.63,2.01,4.54v1.48c-.37-.2-.92-.43-1.65-.69-.73-.25-1.58-.47-2.54-.64-.97-.17-2.01-.25-3.13-.25-2,0-3.82.33-5.47.99-1.64.66-2.96,1.65-3.94,2.96-.98,1.31-1.47,2.91-1.47,4.82,0,1.67.41,3.15,1.25,4.46.83,1.31,1.97,2.34,3.41,3.08,1.44.75,3.13,1.12,5.06,1.12,1.29,0,2.47-.21,3.56-.64,1.08-.42,2.03-.97,2.82-1.63.8-.66,1.41-1.37,1.86-2.12h.25v3.57h4.48v-16.41c0-3.19-1.01-5.73-3.03-7.59-2.02-1.87-4.82-2.8-8.42-2.8ZM189.68,107.95c-.71,1.21-1.66,2.18-2.85,2.91-1.19.73-2.53,1.1-4.02,1.1-1.63,0-2.95-.42-3.97-1.27-1.02-.85-1.53-1.95-1.53-3.31,0-1.46.54-2.68,1.63-3.64,1.08-.97,2.83-1.45,5.24-1.45,1.32,0,2.55.16,3.69.48,1.14.32,2.09.74,2.87,1.25,0,1.43-.36,2.74-1.07,3.95Z"/>
      </g>
    </g>
  </g>
</svg>