<?xml version="1.0" encoding="UTF-8"?>
<svg id="Capa_2" data-name="Capa 2" xmlns="http://www.w3.org/2000/svg" viewBox="0 0 493.8 72.8">
  <defs>
    <style>
      .cls-1 {
        fill: #f4f6f1;
      }
    </style>
  </defs>
  <g id="Capa_1-2" data-name="Capa 1">
    <g>
      <g>
        <path class="cls-1" d="M346.7,21.9l-17.7-6.3c-.9-.3-1.9-.3-2.8,0l-17.7,6.3c-1.6.6-2.8,2.2-2.8,3.9v14c0,4.8,2.1,9.2,6.3,13.5,3.2,3.2,7.6,6.4,13.5,9.7.6.3,1.3.5,2,.5s1.4-.2,2-.5h0c5.9-3.3,10.4-6.5,13.5-9.7,4.3-4.3,6.3-8.7,6.3-13.5v-14c0-1.7-1.1-3.3-2.8-3.9ZM347.4,39.8c0,4.2-1.9,8.2-5.7,12.1-3,3.1-7.3,6.1-13.1,9.3-.6.3-1.4.3-2,0-5.8-3.2-10-6.2-13.1-9.3-3.9-3.9-5.7-7.9-5.7-12.1v-14c0-.9.6-1.7,1.4-2l17.7-6.3c.2,0,.5-.1.7-.1s.5,0,.7.1l17.7,6.3c.8.3,1.4,1.1,1.4,2v14Z"/>
        <path class="cls-1" d="M342.5,32.7l-14.5-5.5c-.2,0-.5,0-.7,0l-14.5,5.5c-.4.1-.7.5-.7.9s.3.8.7.9l14.5,5.5c.1,0,.2,0,.4,0s.2,0,.4,0l14.5-5.5c.4-.1.7-.5.7-.9s-.3-.8-.7-.9ZM327.6,38.1l-11.7-4.5,11.7-4.5,11.7,4.5-11.7,4.5Z"/>
        <path class="cls-1" d="M336.4,38.3c-.6,0-1,.5-1,1v3l-7.7,3-7.7-3v-3c0-.6-.5-1-1-1s-1,.5-1,1v3.7c0,.4.3.8.6.9l8.7,3.4c.1,0,.2,0,.4,0s.3,0,.4,0l8.7-3.4c.4-.2.6-.5.6-.9v-3.7c0-.6-.5-1-1-1Z"/>
        <path class="cls-1" d="M315.1,36.5c-.6,0-1,.5-1,1v8.9c0,.6.5,1,1,1s1-.5,1-1v-8.9c0-.6-.5-1-1-1Z"/>
        <path class="cls-1" d="M374.4,31.3c-1.3-.8-2.7-1.2-4.3-1.2s-1.8.1-2.6.4c-.8.3-1.4.7-2,1.2-.6.5-1,1-1.3,1.5h-.2v-2.6h-3v25.1h3.2v-7.6l-.2-2.4h.2c.5.8,1.2,1.5,2.3,2.1,1,.6,2.2,1,3.6,1s3.1-.4,4.3-1.2c1.3-.8,2.3-1.9,3-3.3.7-1.4,1.1-3,1.1-4.8s-.4-3.4-1.1-4.8c-.7-1.4-1.7-2.5-3-3.3ZM374.6,42.9c-.5,1-1.2,1.7-2.1,2.2-.9.5-1.8.8-2.8.8s-1.9-.3-2.8-.8c-.9-.5-1.6-1.3-2.1-2.2-.5-1-.8-2.1-.8-3.5s.3-2.5.8-3.5c.5-1,1.2-1.7,2.1-2.2.9-.5,1.8-.8,2.8-.8s1.9.3,2.8.8c.9.5,1.6,1.3,2.1,2.2.5,1,.8,2.1.8,3.5s-.3,2.5-.8,3.4Z"/>
        <path class="cls-1" d="M390.2,30.1c-.7,0-1.4.1-2.1.4-.7.3-1.3.7-1.9,1.2-.5.5-.9,1-1.2,1.7h-.2v-2.8h-3v17.6h3.2v-9.7c0-1,.2-1.9.6-2.7.4-.8,1-1.5,1.7-1.9.7-.5,1.5-.7,2.3-.7s.9,0,1.3.2c.4.1.8.2,1.2.4v-3.4c-.3-.1-.5-.2-.8-.3-.3,0-.7,0-1.2,0Z"/>
        <path class="cls-1" d="M406.5,31.2c-1.3-.8-2.8-1.2-4.6-1.2s-3.2.4-4.5,1.3c-1.3.9-2.3,2-3,3.4-.7,1.4-1.1,3-1.1,4.7s.4,3.4,1.1,4.8c.8,1.4,1.8,2.5,3.1,3.3,1.3.8,2.9,1.2,4.6,1.2s3.6-.4,4.9-1.3c1.3-.9,2.3-2,3-3.3l-2.7-1.3c-.5.9-1.2,1.6-2,2.2-.8.6-1.9.9-3.1.9s-1.9-.2-2.8-.7c-.9-.5-1.6-1.2-2.2-2.2-.5-.8-.7-1.8-.8-3h13.8c0-.1,0-.3,0-.4,0-.2,0-.4,0-.5,0-1.8-.3-3.3-1-4.7-.7-1.4-1.6-2.4-2.9-3.2ZM396.7,37.6c.1-.5.3-1,.5-1.5.4-1,1.1-1.8,1.9-2.3.8-.6,1.8-.9,2.9-.9s1.7.1,2.4.4c.6.3,1.2.7,1.6,1.2.4.5.7,1,.9,1.5.2.5.3,1.1.3,1.5h-10.5Z"/>
        <path class="cls-1" d="M420.9,23.2c-1.2,0-2.2.2-3.1.7-.9.5-1.6,1.1-2,2-.5.8-.7,1.8-.7,2.9v1.8h-3.3v2.8h3.3v14.8h3.1v-14.8h4.5v-2.8h-4.5v-1.5c0-.9.3-1.6.8-2.2.5-.5,1.2-.8,2-.8s.7,0,1.1.1c.4,0,.8.2,1.3.4v-3.1c-.4-.1-.8-.2-1.2-.3-.4,0-.9-.1-1.3-.1Z"/>
        <path class="cls-1" d="M437.8,31.4c-1.4-.8-3-1.3-4.8-1.3s-3.3.4-4.7,1.2c-1.4.8-2.4,2-3.2,3.4-.8,1.4-1.2,3-1.2,4.8s.4,3.3,1.2,4.8c.8,1.4,1.8,2.5,3.2,3.4s3,1.2,4.8,1.2,3.3-.4,4.7-1.2c1.4-.8,2.4-2,3.2-3.4.8-1.4,1.2-3,1.2-4.8s-.4-3.3-1.2-4.7c-.8-1.4-1.8-2.5-3.2-3.4ZM438.1,43c-.6,1-1.3,1.7-2.2,2.2-.9.5-1.9.8-2.9.8s-2-.3-2.9-.8c-.9-.5-1.6-1.2-2.2-2.2-.6-1-.8-2.1-.8-3.5s.3-2.5.8-3.5c.6-1,1.3-1.7,2.2-2.2.9-.5,1.9-.8,2.9-.8s2,.3,2.9.8c.9.5,1.6,1.2,2.2,2.2s.8,2.1.8,3.5-.3,2.5-.8,3.5Z"/>
        <path class="cls-1" d="M453.8,30.1c-.7,0-1.4.1-2.1.4-.7.3-1.3.7-1.9,1.2-.5.5-.9,1-1.2,1.7h-.2v-2.8h-3v17.6h3.2v-9.7c0-1,.2-1.9.6-2.7.4-.8,1-1.5,1.7-1.9.7-.5,1.5-.7,2.3-.7s.9,0,1.3.2c.4.1.8.2,1.2.4v-3.4c-.3-.1-.5-.2-.8-.3-.3,0-.7,0-1.2,0Z"/>
        <path class="cls-1" d="M466.3,45.6c-.8,0-1.4-.2-1.8-.7-.4-.5-.6-1.2-.6-2.1v-9.3h4.3v-2.8h-4.3v-5h-3.2v5h-3.1v2.8h3.1v10c0,1.5.5,2.8,1.4,3.7.9.9,2.1,1.4,3.7,1.4s.9,0,1.3-.1c.4,0,.8-.2,1.2-.4v-3.1c-.3.2-.6.3-1,.4-.3.1-.7.2-1,.2Z"/>
        <rect class="cls-1" x="471.8" y="30.6" width="3.2" height="17.6"/>
        <path class="cls-1" d="M473.4,23.1c-.6,0-1.2.2-1.6.6-.4.4-.7,1-.7,1.6s.2,1.2.7,1.6c.4.4,1,.7,1.6.7s1.1-.2,1.6-.7c.4-.4.6-1,.6-1.6s-.2-1.1-.6-1.6c-.4-.4-1-.6-1.6-.6Z"/>
        <path class="cls-1" d="M491.7,32c-1.4-1.3-3.3-1.9-5.7-1.9s-1.9.1-2.8.4c-.9.3-1.7.7-2.4,1.2-.7.5-1.3,1.1-1.8,1.8l2.3,1.8c.5-.7,1.1-1.3,2-1.7.8-.4,1.7-.6,2.7-.6s2.5.4,3.4,1.1c.9.8,1.4,1.8,1.4,3.1v1c-.3-.1-.6-.3-1.1-.5-.5-.2-1.1-.3-1.7-.4-.7-.1-1.4-.2-2.1-.2-1.4,0-2.6.2-3.7.7-1.1.4-2,1.1-2.7,2-.7.9-1,2-1,3.3s.3,2.1.8,3c.6.9,1.3,1.6,2.3,2.1,1,.5,2.1.8,3.4.8s1.7-.1,2.4-.4c.7-.3,1.4-.7,1.9-1.1.5-.4,1-.9,1.3-1.4h.2v2.4h3v-11.1c0-2.2-.7-3.9-2.1-5.2ZM490,43.4c-.5.8-1.1,1.5-1.9,2-.8.5-1.7.7-2.7.7s-2-.3-2.7-.9c-.7-.6-1-1.3-1-2.2s.4-1.8,1.1-2.5c.7-.7,1.9-1,3.6-1s1.7.1,2.5.3c.8.2,1.4.5,2,.8,0,1-.2,1.9-.7,2.7Z"/>
        <path class="cls-1" d="M286.6,19.3c-.4,0-.7.3-.7.7v38.9c0,.4.3.7.7.7s.7-.3.7-.7V20c0-.4-.3-.7-.7-.7Z"/>
      </g>
      <g>
        <path class="cls-1" d="M255.6,38.3c.4-.3.9-.7,1.4-1.2l-.7-.8c-.5.5-1,.9-1.5,1.1-.5.2-1.1.4-1.7.4s-1.4-.2-1.8-.5c-.5-.4-.8-.8-1-1.5-.2-.6-.3-1.4-.3-2.3v-.2h7.3c0-1-.1-1.9-.3-2.5-.2-.6-.4-1.2-.8-1.6-.3-.4-.8-.8-1.3-1-.5-.2-1.2-.4-2-.4s-1.9.2-2.6.7c-.8.5-1.3,1.2-1.8,2-.4.9-.6,1.9-.6,3,0,1.9.4,3.3,1.2,4.2.8,1,2,1.4,3.6,1.4s1.1,0,1.6-.2c.5-.2.9-.4,1.4-.7ZM250.8,29.6c.5-.6,1.1-1,1.9-1s.9.1,1.3.4c.3.3.6.7.7,1.2.2.5.3,1.2.3,2h-5c0-1.2.4-2.1.8-2.7Z"/>
        <path class="cls-1" d="M265.8,33.6c-.4-.3-1-.6-1.8-.9-.8-.3-1.3-.6-1.6-.8-.3-.2-.5-.4-.7-.6-.1-.2-.2-.5-.2-.9s.2-.9.5-1.2c.4-.3.9-.4,1.5-.4s.8,0,1.1.2c.3.1.6.3.8.6.2.3.4.6.6,1.1h1.1v-2.4c-.7-.1-1.3-.2-1.8-.3-.5,0-1,0-1.5,0-.9,0-1.6.1-2.3.4-.6.2-1.1.6-1.5,1.1-.3.5-.5,1-.5,1.6s.1,1,.4,1.3c.2.4.6.7,1,1,.4.3,1,.6,1.7.9.8.3,1.4.6,1.7.8.3.2.6.4.7.7.2.2.2.6.2,1s0,.6-.2.9c-.1.2-.3.4-.5.5-.2.1-.4.2-.7.3-.3,0-.5,0-.8,0-.7,0-1.3-.2-1.7-.5-.4-.3-.7-.8-.9-1.5h-1.1v2.4c.6.2,1.2.3,1.8.4.6,0,1.2.1,1.9.1s1.2,0,1.7-.2c.5-.1,1-.3,1.3-.6.4-.3.7-.6.9-1,.2-.4.3-.9.3-1.5s-.1-1-.4-1.4c-.2-.4-.6-.7-1-1Z"/>
        <path class="cls-1" d="M161.5,37.2h.2s-.1,1.9-.1,1.9h3.4v-.7c-.4,0-.7-.2-.9-.3-.2,0-.3-.2-.4-.4,0-.2-.1-.4-.2-.6,0-.3,0-.7,0-1.3v-13.4h-3.5v.7c.4,0,.7.1.8.2.1,0,.3.2.4.3,0,.1.2.3.2.5,0,.2,0,.5,0,.7,0,.3,0,.8,0,1.5v1.8c-.4-.2-.9-.3-1.3-.4-.4,0-.9-.1-1.4-.1-.9,0-1.8.2-2.6.6-.8.4-1.4,1.1-1.8,2-.4.9-.7,2-.7,3.2,0,1.8.3,3.2,1,4.2.7,1,1.7,1.4,2.9,1.4s.9,0,1.3-.2c.4-.2.8-.4,1.1-.6.4-.3.8-.6,1.3-1.2ZM159.4,37.7c-.2,0-.5,0-.8,0-.9,0-1.5-.4-1.9-1.2-.4-.8-.6-1.9-.6-3.4s.3-2.6.8-3.4c.5-.8,1.3-1.2,2.3-1.2s.7,0,.9.1c.3,0,.5.2.7.4.2.2.4.4.5.6.1.2.2.6.3.9,0,.4,0,.8,0,1.4v2.6c0,.4,0,.7,0,.9,0,.2-.1.4-.2.6-.1.2-.3.4-.5.6s-.4.4-.7.5c-.2.1-.4.2-.7.3Z"/>
        <path class="cls-1" d="M104.2,37.4c0,.3-.1.4-.2.6,0,.1-.2.2-.3.3s-.3.1-.6.2v.6h4.5v-.6c-.4,0-.7-.2-.8-.4-.2-.1-.3-.3-.4-.6,0-.3,0-.7,0-1.4v-4.3c0-.4,0-.7.2-1,.1-.3.4-.6.7-.9.3-.3.6-.5.9-.6.3-.1.6-.2.9-.2s.5,0,.7,0c.2,0,.3.2.5.3.1.1.3.2.4.4.1.2.2.4.3.7,0,.3.1.6.2,1.1,0,.4,0,.9,0,1.5v3c0,.5,0,.9,0,1.2,0,.3-.1.4-.2.6,0,.1-.2.2-.3.3-.1,0-.3.1-.6.2v.6h4.5v-.6c-.4,0-.6-.2-.8-.3-.1,0-.3-.2-.3-.3,0-.1-.1-.3-.2-.6,0-.2,0-.6,0-1.2v-4.4c0-.6,0-1.2-.1-1.6,0-.4-.2-.8-.4-1.1-.2-.3-.4-.5-.6-.7s-.5-.3-.9-.4c-.3,0-.7-.1-1.1-.1s-.8,0-1.1.2c-.4.1-.7.3-1.1.6-.4.2-.8.7-1.4,1.2h-.2s.1-1.9.1-1.9h-3.4v.7c.3,0,.6.1.8.2.2,0,.3.2.4.4,0,.2.1.4.2.7,0,.3,0,.7,0,1.2v5c0,.5,0,.9,0,1.2Z"/>
        <rect class="cls-1" x="117.4" y="23.4" width="2.1" height="2.2"/>
        <path class="cls-1" d="M145.5,37.8c0-.1-.1-.3-.2-.6,0-.2,0-.6,0-1.2v-4.4c0-.6,0-1.2-.1-1.6,0-.4-.2-.8-.4-1.1-.2-.3-.4-.5-.6-.7-.2-.2-.5-.3-.9-.4-.3,0-.7-.1-1.1-.1s-.8,0-1.1.2c-.4.1-.7.3-1.1.6-.4.2-.8.7-1.4,1.2h-.2s.1-1.9.1-1.9h-3.4v.7c.3,0,.6.1.8.2.2,0,.3.2.4.4,0,.2.1.4.2.7,0,.3,0,.7,0,1.2v5c0,.5,0,.9,0,1.2,0,.3-.1.4-.2.6,0,.1-.2.2-.3.3-.1,0-.3.1-.6.2v.6h4.5v-.6c-.4,0-.7-.2-.8-.4-.2-.1-.3-.3-.4-.6,0-.3,0-.7,0-1.4v-4.3c0-.4,0-.7.2-1,.1-.3.4-.6.7-.9.3-.3.6-.5.9-.6.3-.1.6-.2.9-.2s.5,0,.7,0c.2,0,.3.2.5.3.1.1.3.2.4.4.1.2.2.4.3.7,0,.3.1.6.2,1.1,0,.4,0,.9,0,1.5v3c0,.5,0,.9,0,1.2,0,.3-.1.4-.2.6,0,.1-.2.2-.3.3-.1,0-.3.1-.6.2v.6h4.5v-.6c-.4,0-.6-.2-.8-.3-.1,0-.3-.2-.3-.3Z"/>
        <path class="cls-1" d="M128,27.8c-1,0-1.9.2-2.6.6-.8.4-1.4,1.1-1.8,2-.4.9-.7,2-.7,3.2,0,1.8.4,3.2,1.3,4.2.8.9,2.1,1.4,3.7,1.4s2-.2,2.8-.7c.8-.4,1.4-1.1,1.8-2,.4-.9.6-2,.6-3.2s-.4-3.2-1.3-4.1c-.8-1-2.1-1.4-3.7-1.4ZM130.7,35.4c0,.6-.3,1-.5,1.5-.2.4-.5.8-.9,1-.4.3-.8.4-1.3.4-.9,0-1.7-.4-2.2-1.3-.5-.8-.8-2.1-.8-3.7s.2-2.6.7-3.5c.5-.8,1.2-1.2,2.1-1.2s1,.2,1.5.5c.4.3.8.9,1,1.6.3.7.4,1.7.4,2.8s0,1.2-.2,1.8Z"/>
        <path class="cls-1" d="M98.7,37.3c.3-.4.5-1,.7-1.5.2-.6.2-1.3.2-2.2v-7.4c0-.6,0-1.1,0-1.3,0-.3.2-.5.3-.6.2-.1.5-.3.9-.4v-.6h-4.6v.6c.5.1.8.2.9.4.1.1.3.3.3.6,0,.2,0,.7,0,1.4v7.2c0,.9,0,1.7-.1,2.3,0,.6-.3,1-.6,1.4-.3.4-.6.7-1,.9-.4.2-.9.3-1.4.3s-1.1,0-1.5-.2c-.4-.1-.7-.3-1-.6-.3-.3-.5-.7-.7-1.2-.2-.5-.2-1.1-.2-1.9v-8.2c0-.6,0-1.1,0-1.4,0-.3.2-.5.3-.6.2-.1.5-.3.9-.4v-.6h-4.9v.6c.4,0,.6.2.8.3.1,0,.2.2.3.3,0,.1.1.3.2.5,0,.2,0,.6,0,1.2v7.6c0,1,0,1.8.3,2.5.2.6.5,1.2.9,1.7.4.5,1,.8,1.7,1,.7.2,1.5.3,2.4.3s1.4,0,2-.2c.6-.2,1.1-.4,1.5-.7.4-.3.7-.6,1-1Z"/>
        <path class="cls-1" d="M207.3,29.2c0,.2.1.4.2.7,0,.3,0,.7,0,1.2v5c0,.5,0,.9,0,1.2,0,.3-.1.4-.2.6,0,.1-.2.2-.3.3-.1,0-.3.1-.6.2v.6h4.5v-.6c-.4,0-.7-.2-.8-.4-.2-.1-.3-.3-.4-.6,0-.3,0-.7,0-1.4v-8.3h-3.4v.7c.3,0,.6.1.8.2.2,0,.3.2.4.4Z"/>
        <rect class="cls-1" x="207.4" y="23.4" width="2.1" height="2.2"/>
        <path class="cls-1" d="M195.8,35.5c.5-1.2.8-2.8.8-4.6s-.2-3.1-.7-4.3c-.5-1.2-1.2-2.1-2.1-2.7-.9-.6-2.1-.9-3.5-.9s-2.4.3-3.4,1c-1,.6-1.7,1.6-2.2,2.8-.5,1.2-.8,2.7-.8,4.4s.1,2.6.4,3.6c.3,1,.7,1.8,1.3,2.5.5.6,1.2,1.1,2,1.4.8.3,1.6.5,2.5.5,1.3,0,2.5-.3,3.4-.9,1-.6,1.7-1.5,2.3-2.8ZM190.3,38.2c-1.3,0-2.3-.6-3-1.8-.7-1.2-1-3-1-5.4s0-2,.2-2.8c.2-.8.4-1.6.7-2.2.3-.6.7-1.1,1.2-1.4.5-.3,1.1-.5,1.8-.5s1.5.3,2.1.8c.6.5,1.1,1.3,1.4,2.4.3,1.1.5,2.5.5,4.2s-.1,2.6-.4,3.6c-.3,1-.7,1.8-1.3,2.3-.6.5-1.3.8-2.1.8Z"/>
        <polygon class="cls-1" points="130.9 22.9 130.9 22.4 128.8 22.4 126.4 26.1 127.2 26.7 130.9 22.9"/>
        <path class="cls-1" d="M239.6,39v-.6c-.3,0-.6-.2-.7-.3-.1,0-.3-.2-.3-.3,0-.1-.1-.3-.2-.5,0-.2,0-.4,0-.7,0-.2,0-.6,0-1.2v-4c0-1-.1-1.8-.3-2.3-.2-.5-.6-.9-1-1.1-.5-.2-1.1-.4-1.8-.4s-1,0-1.5.2c-.5.1-1,.2-1.5.4-.5.2-1.1.5-1.8.8v1.5h1.5c.2-.6.5-1.1.8-1.4.4-.3.8-.5,1.4-.5s1,.1,1.3.3c.3.2.6.6.7,1,.2.5.2,1.1.2,1.9v.8c-2.2,0-3.9.5-5,1.1-1.1.6-1.7,1.5-1.7,2.6s.1,1,.4,1.4c.2.4.6.7,1,1,.4.2,1,.3,1.5.3s1.3-.1,1.9-.4c.6-.3,1.2-.8,1.9-1.5h.2s0,1.7,0,1.7h3.2ZM236.3,35.4c0,.4-.1.8-.4,1.2-.2.4-.6.7-1,1-.4.3-.9.4-1.4.4s-.7,0-1-.1c-.3,0-.5-.3-.7-.5-.2-.3-.3-.6-.3-1,0-.8.4-1.4,1.2-1.8.8-.4,1.9-.6,3.5-.6v1.6Z"/>
        <path class="cls-1" d="M119.5,37.5c0-.3,0-.7,0-1.4v-8.3h-3.4v.7c.3,0,.6.1.8.2.2,0,.3.2.4.4,0,.2.1.4.2.7,0,.3,0,.7,0,1.2v5c0,.5,0,.9,0,1.2,0,.3-.1.4-.2.6,0,.1-.2.2-.3.3-.1,0-.3.1-.6.2v.6h4.5v-.6c-.4,0-.7-.2-.8-.4-.2-.1-.3-.3-.4-.6Z"/>
        <path class="cls-1" d="M200.2,37.3c0,.2,0,.4-.2.6,0,.1-.2.2-.3.3-.1,0-.4.2-.7.3v.6h4.7v-.6c-.3,0-.6-.2-.8-.2-.2,0-.3-.2-.4-.3,0-.1-.2-.3-.2-.6,0-.3,0-.7,0-1.2v-7h2.8v-1.2h-2.8v-1c0-.6,0-1.2,0-1.6s.2-.8.3-1.1c.1-.3.3-.5.5-.6.2-.1.4-.2.7-.2s.5,0,.7.3c.2.2.3.5.4.9h.9v-2.1c-.4,0-.8-.1-1.2-.1-.8,0-1.6.2-2.2.5-.6.3-1.1.8-1.5,1.5-.4.7-.6,1.5-.7,2.4,0,.4,0,.7-.1,1,0,.2-.2.4-.4.5-.2.1-.5.2-.9.2v.6h1.4v7c0,.5,0,.9,0,1.2Z"/>
        <path class="cls-1" d="M244.5,37.5c0-.3,0-.7,0-1.4v-13.6h-3.5v.7c.4,0,.7.1.8.2.1,0,.3.2.4.3,0,.1.2.3.2.5,0,.2,0,.5,0,.7,0,.3,0,.8,0,1.5v9.7c0,.4,0,.8,0,1,0,.3,0,.5-.1.6,0,.2-.2.3-.3.4-.1.1-.4.2-.8.3v.6h4.6v-.6c-.4,0-.7-.2-.8-.4-.2-.1-.3-.3-.4-.6Z"/>
        <path class="cls-1" d="M217.4,39.2c.4,0,.8,0,1.1-.1.3,0,.7-.2,1-.3.3-.2.7-.4,1-.6.3-.2.6-.6,1-1l-.7-.8c-.5.5-1,.9-1.4,1.1-.5.2-1,.3-1.5.3s-1-.1-1.4-.3c-.4-.2-.7-.5-.9-.9-.2-.4-.4-.8-.5-1.4,0-.5-.1-1.1-.1-1.8,0-1,.1-1.9.4-2.6.2-.7.6-1.2,1-1.6.4-.3.9-.5,1.4-.5s.7,0,.9.2c.3.1.5.3.7.6.2.3.4.7.5,1.2h1.5v-2.4c-.5-.2-1.1-.3-1.6-.4-.5,0-1.1-.1-1.7-.1-1,0-1.9.2-2.7.7-.8.5-1.4,1.2-1.8,2-.4.9-.6,1.9-.6,3,0,1.8.4,3.2,1.2,4.2.8,1,1.9,1.5,3.3,1.5Z"/>
        <path class="cls-1" d="M174.7,38.3c.4-.3.9-.7,1.4-1.2l-.7-.8c-.5.5-1,.9-1.5,1.1-.5.2-1.1.4-1.7.4s-1.4-.2-1.8-.5c-.5-.4-.8-.8-1-1.5-.2-.6-.3-1.4-.3-2.3v-.2h7.3c0-1-.1-1.9-.3-2.5-.2-.6-.4-1.2-.8-1.6-.3-.4-.8-.8-1.3-1-.5-.2-1.2-.4-2-.4s-1.9.2-2.6.7c-.8.5-1.3,1.2-1.8,2-.4.9-.6,1.9-.6,3,0,1.9.4,3.3,1.2,4.2.8,1,2,1.4,3.6,1.4s1.1,0,1.6-.2c.5-.2.9-.4,1.4-.7ZM169.9,29.6c.5-.6,1.1-1,1.9-1s.9.1,1.3.4c.3.3.6.7.7,1.2.2.5.3,1.2.3,2h-5c0-1.2.4-2.1.8-2.7Z"/>
        <path class="cls-1" d="M224.4,37.4c0,.3-.1.4-.2.6,0,.1-.2.2-.3.3-.1,0-.3.1-.6.2v.6h4.5v-.6c-.4,0-.7-.2-.8-.4-.2-.1-.3-.3-.4-.6,0-.3,0-.7,0-1.4v-8.3h-3.4v.7c.3,0,.6.1.8.2.2,0,.3.2.4.4,0,.2.1.4.2.7,0,.3,0,.7,0,1.2v5c0,.5,0,.9,0,1.2Z"/>
        <rect class="cls-1" x="224.4" y="23.4" width="2.1" height="2.2"/>
        <path class="cls-1" d="M118.1,51.6h0c.8-.2,1.1-.9,1.1-1.7s-.8-1.7-2-1.7h-3.1v6.6h.9v-2.8h2.1c.8,0,1,.5,1.1,1.2.1.6,0,1.4.2,1.6h1c-.4-.5-.3-1.2-.4-1.8,0-.6-.2-1.2-1-1.4ZM116.9,51.2h-1.8v-2.3h2.2c.8,0,1.2.5,1.2,1.1,0,1-.7,1.2-1.5,1.2Z"/>
        <path class="cls-1" d="M108,48.2l-2.6,6.6h.9l.7-2h2.8l.7,2h1l-2.6-6.6h-1ZM107.4,52.1l1.1-3.1h0l1.1,3.1h-2.2Z"/>
        <path class="cls-1" d="M102,52.4c0,1.2-.6,1.8-1.7,1.8s-1.8-.6-1.8-1.8v-4.2h-.9v4.2c0,1.7,1,2.5,2.7,2.5s2.6-.9,2.6-2.5v-4.2h-.9v4.2Z"/>
        <path class="cls-1" d="M91.4,52.1h2.1c0,1.2-.8,2.1-2.1,2.1s-2.3-1.3-2.3-2.6.7-2.8,2.3-2.8,1.8.4,2,1.4h.9c-.2-1.5-1.4-2.2-2.8-2.2-2.1,0-3.1,1.7-3.1,3.6s1.2,3.3,3.1,3.3,1.6-.3,2.1-1l.2.8h.6v-3.5h-2.9v.7Z"/>
        <polygon class="cls-1" points="218 51.8 221.5 51.8 221.5 51 218 51 218 49 221.7 49 221.7 48.2 217.2 48.2 217.2 54.8 221.7 54.8 221.7 54 218 54 218 51.8"/>
        <rect class="cls-1" x="232.8" y="48.2" width=".9" height="6.6"/>
        <path class="cls-1" d="M227.6,51.1c-1.1-.2-2.1-.4-2.1-1.2s.7-1.1,1.5-1.1,1.5.4,1.6,1.3h.8c0-1.4-1.1-2.1-2.4-2.1s-2.4.6-2.4,1.9,1.1,1.5,2.1,1.7c1,.2,2.1.4,2.1,1.3s-.9,1.2-1.7,1.2-1.9-.5-1.9-1.6h-.8c0,1.6,1.2,2.3,2.7,2.3s2.6-.6,2.6-2-1-1.7-2.1-1.9Z"/>
        <path class="cls-1" d="M196.5,51.6h0c.8-.2,1.1-.9,1.1-1.7s-.8-1.7-2-1.7h-3.1v6.6h.9v-2.8h2.1c.8,0,1,.5,1.1,1.2.1.6,0,1.4.2,1.6h1c-.4-.5-.3-1.2-.4-1.8,0-.6-.2-1.2-1-1.4ZM195.3,51.2h-1.8v-2.3h2.2c.8,0,1.2.5,1.2,1.1,0,1-.7,1.2-1.5,1.2Z"/>
        <path class="cls-1" d="M203.7,48.1c-2.1,0-3.1,1.7-3.1,3.4s1.1,3.4,3.1,3.4,3.1-1.7,3.1-3.4-1.1-3.4-3.1-3.4ZM203.7,54.2c-1.6,0-2.3-1.4-2.3-2.7s.7-2.7,2.3-2.7,2.3,1.4,2.3,2.7-.7,2.7-2.3,2.7Z"/>
        <polygon class="cls-1" points="209.9 54.8 210.8 54.8 210.8 51.8 213.8 51.8 213.8 51 210.8 51 210.8 49 214.2 49 214.2 48.2 209.9 48.2 209.9 54.8"/>
        <path class="cls-1" d="M256.6,48.2l-2.6,6.6h.9l.7-2h2.8l.7,2h1l-2.6-6.6h-1ZM255.9,52.1l1.1-3.1h0l1.1,3.1h-2.2Z"/>
        <polygon class="cls-1" points="263.6 48.2 262.8 48.2 262.8 54.8 267.1 54.8 267.1 54 263.6 54 263.6 48.2"/>
        <path class="cls-1" d="M124.8,48.2h-2.3v6.6h2.3c2.2,0,3.2-1.2,3.2-3.4s-1.1-3.1-3.2-3.1ZM124.8,54h-1.5v-5.1h1.5c1.6,0,2.2.9,2.2,2.5,0,2.4-1.6,2.6-2.2,2.6Z"/>
        <polygon class="cls-1" points="250.5 53.5 250.5 53.5 247.1 48.2 246.1 48.2 246.1 54.8 247 54.8 247 49.5 247 49.5 250.4 54.8 251.4 54.8 251.4 48.2 250.5 48.2 250.5 53.5"/>
        <path class="cls-1" d="M239.9,48.1c-2.1,0-3.1,1.7-3.1,3.4s1.1,3.4,3.1,3.4,3.1-1.7,3.1-3.4-1.1-3.4-3.1-3.4ZM239.9,54.2c-1.6,0-2.3-1.4-2.3-2.7s.7-2.7,2.3-2.7,2.3,1.4,2.3,2.7-.7,2.7-2.3,2.7Z"/>
        <rect class="cls-1" x="156.6" y="48.2" width=".9" height="6.6"/>
        <path class="cls-1" d="M187.5,48.2h-2.9v6.6h.9v-2.7h2c1.3,0,2-.7,2-1.9s-.7-1.9-2-1.9ZM187.2,51.4h-1.7v-2.4h1.7c1,0,1.4.4,1.4,1.2s-.5,1.2-1.4,1.2Z"/>
        <path class="cls-1" d="M137.2,48.2l-2.6,6.6h.9l.7-2h2.8l.7,2h1l-2.6-6.6h-1ZM136.5,52.1l1.1-3.1h0l1.1,3.1h-2.2Z"/>
        <rect class="cls-1" x="131" y="48.2" width=".9" height="6.6"/>
        <path class="cls-1" d="M150.7,54.2c-1.6,0-2.2-1.3-2.2-2.8s.7-2.7,2.2-2.7,1.7.5,1.8,1.4h.9c-.2-1.4-1.3-2.1-2.7-2.1-2,0-3.1,1.6-3.1,3.5s1,3.4,3,3.4,2.7-1,2.8-2.6h-.9c0,1.1-.7,1.9-1.9,1.9Z"/>
        <polygon class="cls-1" points="173.8 48.2 172.9 48.2 172.9 54.8 177.3 54.8 177.3 54 173.8 54 173.8 48.2"/>
        <rect class="cls-1" x="168.6" y="48.2" width=".9" height="6.6"/>
        <polygon class="cls-1" points="163 53.9 163 53.9 161.2 48.2 160.2 48.2 162.5 54.8 163.5 54.8 165.9 48.2 164.9 48.2 163 53.9"/>
        <polygon class="cls-1" points="28.1 11.6 29.1 13.8 30 11.6 32.3 11.9 31 10 32.3 8.1 30 8.3 29.1 6.2 28.1 8.3 25.8 8.1 27.2 10 25.8 11.9 28.1 11.6"/>
        <polygon class="cls-1" points="37 5.4 35.9 7.8 38.2 6.6 39.1 9.1 39.9 6.6 42.3 7.7 41.2 5.4 43.6 4.5 41.2 3.7 42.3 1.3 39.9 2.4 39.1 0 38.2 2.4 35.9 1.3 37 3.7 34.5 4.5 37 5.4"/>
        <polygon class="cls-1" points="45.8 11.9 48.1 11.6 49.1 13.8 50 11.6 52.4 11.9 51 10 52.4 8.1 50 8.3 49.1 6.2 48.1 8.3 45.8 8.1 47.2 10 45.8 11.9"/>
        <path class="cls-1" d="M78.1,31.6h-.1c0,0-.3.3-.3.3-.4.3-.8.7-1.2,1.1-.2.2-.4.4-.6.6l-.6.6c-.2.2-.4.4-.6.6l-.6.6-.6.6-.5.6c-.4.4-.7.8-1.1,1.2l-.3.3-.2.3-.3.3-.2.3h0c0,0-.5.7-.5.7,0,.1-.2.2-.2.3,0,.1-.2.2-.2.3-.2.2-.3.4-.5.7l-.4.7c-.3.4-.6.9-.9,1.4-.2.3-.4.6-.5.9,0,.2-.2.3-.3.5-.1.3-.3.5-.5.8h0c0,.2-.2.3-.3.5h0c0,.1-.2.5-.2.5h.1c0-.1.2-.2.3-.2.1,0,.3-.1.4-.2.2,0,.3-.1.5-.2l.7-.2h.3c0-.1,0,.6,0,.6v.3c0,.1,0,.2,0,.3v.3c0,0,0,.2,0,.2,0,.1,0,.2,0,.3,0,0,0,.1,0,.2.1,0,.3-.2.4-.2l.5-.3.5-.3c.2-.1.3-.2.5-.3.1,0,.2-.1.3-.2l.3-.2c.2-.2.4-.4.6-.6.4-.4.8-.8,1.2-1.2.2-.2.4-.4.6-.6l.3-.3.3-.3c.2-.2.3-.4.5-.7l.5-.7c.3-.5.6-.9.9-1.4,0-.1.1-.2.2-.4l.2-.4.2-.4.2-.4.2-.4c0-.1,0-.3.1-.4v-.4c.1,0,.3-.4.3-.4v-.4c.1,0,.2-.4.2-.4,0-.3.1-.5.2-.8,0-.3,0-.5.1-.8,0-.3,0-.5,0-.8,0-.5,0-1.1,0-1.6,0-.2,0-.4,0-.6Z"/>
        <path class="cls-1" d="M61.4,23.1c0,.2.2.4.3.5,0,.2.2.4.3.5.1.2.2.4.3.5.1.2.2.4.4.6,1,1.5,2,3.3,2.9,5.3.9,2,1.6,4.1,2,6.4.3,1.7.5,3.5.4,5.3.2-.3.4-.7.6-1l.4-.7c.1-.2.3-.5.4-.7.2-.2.3-.5.5-.7l.5-.7.2-.3c0-.8.1-1.7.1-2.5,0-1.1,0-2.2-.2-3.3,0-.5-.2-1.1-.3-1.6-.1-.5-.2-1-.4-1.5-.3-1-.6-1.9-1-2.8,0-.2-.2-.4-.3-.7,0-.2-.2-.4-.3-.6-.1-.2-.2-.4-.3-.6,0-.2-.2-.4-.3-.6-.8-1.6-1.7-3-2.6-4.1-.1-.1-.2-.3-.3-.4-.1-.1-.2-.3-.3-.4-.2-.3-.4-.5-.6-.8-.4-.5-.8-.9-1.1-1.3-.4-.4-.7-.7-1-1-.3-.3-.5-.5-.7-.7-.2.5-.4,1.3-.5,2.2-.1,1-.1,2.2.2,3.6.2.7.4,1.4.7,2.1Z"/>
        <path class="cls-1" d="M67.1,50.4c0-.2,0-.3,0-.5,0,0,0-.2,0-.2h0c0-.1,0-.2,0-.2,0,0,0-.2,0-.3h0c0-.2,0-.3,0-.5,0,0,0-.2,0-.3h0c0-.4,0-.7,0-1h0c-.2.1-.3.2-.5.3h-.1c0,0,0,.1-.1.1-.2,0-.3.2-.5.3h0c0,0,0,0,0,0l-.3.2h-.2c0,.1,0,.2,0,.2h0c0,0,0,.1,0,.1h0s0,0,0,0h0l-.3.2h-.2c0,.1-.2.3-.2.3,0,0-.1.1-.2.2-.2.1-.3.3-.5.4h0c0,0-.1.2-.2.2,0,0-.1.1-.2.2-.3.3-.6.5-.9.8-.4.4-.9.9-1.3,1.3-.2.2-.4.4-.6.7-.2.2-.4.4-.6.7-.4.5-.8.9-1.2,1.4l-.6.7c-.2.2-.4.5-.7.7-.9.9-2,1.6-3.1,2.1-.6.3-1.1.5-1.7.7-.6.2-1.2.4-1.8.5-1.2.3-2.4.5-3.6.6-.4-3.8-3.3-6.9-7.2-7.4-2.6-.3-5,.5-6.7,2.2,0,0-.1.1-.2.2-.1.1-.2.2-.4.4,0,0-.2.2-.2.3,0,.1-.2.2-.3.3,0,.1-.1.2-.2.3,0,.1-.2.2-.2.4,0,.1-.1.2-.2.3,0,.1-.1.3-.2.4,0,.1,0,.2-.1.3,0,.1-.1.3-.2.4,0,.1,0,.2-.1.4,0,.1,0,.3-.1.4,0,.2,0,.4-.1.7,0,0,0,0,0,.1,0,0,0,.1,0,.2,0,0,0,0,0,.1-1.2-.1-2.4-.3-3.6-.6-.6-.2-1.2-.3-1.8-.5-.6-.2-1.2-.5-1.7-.7-1.1-.6-2.2-1.3-3.1-2.1-.2-.2-.5-.4-.7-.7l-.6-.7c-.4-.5-.8-.9-1.2-1.4-.2-.2-.4-.4-.6-.7-.2-.2-.4-.4-.6-.7-.4-.4-.8-.9-1.3-1.3-.3-.3-.6-.5-.9-.8,0,0-.1-.1-.2-.2,0,0-.1-.1-.2-.2h0c-.2-.2-.3-.3-.5-.4,0,0-.1-.1-.2-.2l-.2-.2h-.2c0-.1-.3-.3-.3-.3h0s0,0,0,0h0c0,0,0-.1,0-.1h0c0,0-.2-.2-.2-.2l-.3-.2h0s0,0,0,0c-.2,0-.3-.2-.5-.3,0,0,0,0-.1,0h-.1c-.2-.2-.3-.2-.5-.3h0c0,.3,0,.6,0,.9h0c0,.2,0,.3,0,.4,0,.2,0,.3,0,.5h0c0,.1,0,.2,0,.3h0c0,0,0,.2,0,.2,0,0,0,.2,0,.2,0,.2,0,.3,0,.5.1.7.3,1.3.5,1.9.2.6.5,1.2.8,1.8,0,.1.2.3.3.4h0c0,.1,0,.1,0,.1h0s0,0,0,0h0c0,0,.2.3.2.3,0,0,.1.1.2.2v.2c.1,0,.4.3.4.3h0c0,.1,0,.2.1.2,0,0,.1.1.2.2.4.3.7.7,1.1,1,.5.4,1.1.8,1.7,1.2.6.4,1.2.7,1.8,1,.6.3,1.3.5,1.9.8.3.1.7.2,1,.3.2,0,.3.1.5.1h.5c.3.2.7.3,1,.4.3,0,.7.1,1,.2.3,0,.7.1,1,.2h.5c0,0,.5.1.5.1.3,0,.7,0,1.1,0,0,1.1.2,2.2.5,3.2.3,1.1.8,2.1,1.4,3,.6.9,1.4,1.8,2.2,2.5.8.7,1.8,1.3,2.7,1.7,1.9.9,4.1,1.1,6,.9,1.9-.2,3.7-.9,5.1-1.9,1.4-.9,2.5-2.1,3.2-3.3.8-1.1,1.2-2.3,1.5-3.2,0-.2.1-.5.2-.7,0-.2,0-.4.1-.6,0-.4.1-.7.1-1,0-.3,0-.5,0-.7.3,0,.7,0,1,0h.5s.5-.1.5-.1c.3,0,.7,0,1-.2.3,0,.7-.1,1-.2.3,0,.7-.1,1-.2h.5c.2-.2.3-.2.5-.3.3,0,.7-.2,1-.3.6-.2,1.3-.5,1.9-.8.6-.3,1.2-.6,1.8-1,.6-.4,1.2-.7,1.7-1.2.4-.3.8-.6,1.1-1,0,0,.1-.1.2-.2,0,0,0,0,.1-.2h0c0,0,.2-.4.2-.4v-.2c.2,0,.2-.1.3-.2l.2-.2h0c0,0,0,0,0,0h0s0,0,0,0h0c0-.2.2-.4.3-.5.3-.6.6-1.2.8-1.8.2-.6.4-1.3.5-1.9ZM30.8,61.3h0s0,0,0,0c0,0,0,0,0,0ZM43.8,56.3h-.1s0,0,0,0c-.4.9-1.1,1.7-1.8,2.2.2.3.5.5.7.8h0c0,0,.2,0,.2,0,.1,0,.1.3,0,.4-.1.2-.3.2-.4.1,0,0-.1-.2,0-.3-.3-.1-.6-.3-.9-.5l-.5.6-.9,1.1h0c0,0,.1.2.2.3l2.1,2.8c.6.2.4.3.3.4h0c.2,0,.3.2.2.3.2,0,.2.1.2.2.2,0,.2.1.2.3l.6.7c0,.2-.1.3-.3.3,0,.2-.1.3-.3.3,0,0,0,.2-.1.2,0,0,0,0,0,0,0,0,0,0-.1,0,0,.2-.1.3-.3.3,0,.2-.2.3-.4.2-.2-.2-.3-.5-.5-.7h0c-.1,0-.2,0-.2-.3-.1,0-.2,0-.2-.3h0c-.1.2-.3.3-.4.1,0,0,0,0,0-.2l-2.2-2.9h-.3c0,0,0-.1,0-.1l-3.3,3.8-.8.4.3-.7,3.4-4s0-.1,0-.3c-.1,0-.3,0-.3-.3h0s0,0,0,0h0c-.1,0-.3,0-.3-.3h0s-1.4-1.8-1.4-1.8c-.1.4,0,.8.4.9-1.9.7-2.5-1.6-1.7-2.3,0,.7.4.8.8.7l-.2-.2h0s0,0,0,0h0c0,0,0-.1,0-.2,0,0,0-.2.1-.2h0s0,0,0,0h0c-.1,0-.2,0-.2-.3-.1,0-.2,0-.2-.2h0c-.1,0-.2-.1-.2-.3-.1-.2-.3-.4-.4-.6,0-.1.1-.3.3-.3h0s0,0,0,0c0-.1.1-.3.3-.3h0s0,0,0,0c0,0,0-.1,0-.2,0,0,.1-.1.2,0h0s0,0,0,0c0-.1.1-.3.3-.3h0s0,0,0,0c0-.1.1-.3.3-.3l.5.6h0c.2,0,.3.2.2.3.2,0,.2.1.2.2.2,0,.2.1.2.3l2.1,2.7c.2,0,.4.3.4.4,0,0,0,.1,0,.2h0c0,0,.1.1.1.2l.8-1,.5-.6c-.2-.2-.4-.4-.6-.7,0,0-.2,0-.3,0-.1,0-.1-.3,0-.4.1-.2.3-.2.4-.1,0,0,.1.2,0,.3.3.1.6.3.8.4.4-.7.8-1.5,1.9-2h0c0,0,0-.1,0-.2,0-.2.2-.4.4-.4s.4.2.4.4-.2.4-.4.4ZM47.2,62.9s0,0,0,0c0,0,0-.2,0-.3,0,0,0,.1,0,.2ZM47.3,61.8c0,.1,0,.2,0,.4,0-.1,0-.3,0-.4,0,0,0,0,0,0ZM47.3,61.4s0,0,0,0h0s0,0,0,0Z"/>
        <path class="cls-1" d="M75.4,46c-.2,0-.4,0-.5,0h-.5c-.2.1-.4.2-.5.2h-.3c0,0-.3.1-.3.1-.2,0-.4.1-.5.2l-.5.2c-.2,0-.3.1-.5.2-.2,0-.3.1-.5.2-.2,0-.3.2-.5.2h0s-.5.3-.5.3l-.5.3c-.2,0-.3.2-.5.3-.1,0-.3.2-.4.2,0,.1,0,.2,0,.3,0,.6-.2,1.2-.3,1.8-.2.7-.4,1.4-.6,2.1-.3.7-.6,1.4-1,2,0,.2-.2.3-.3.5h0c0,.1,0,.2,0,.2h0c0,0-.2.3-.2.3h0s.1,0,.1,0c.2,0,.4,0,.6,0h.6c0,0,.6-.2.6-.2h.2s.1,0,.1,0h.3c0-.1.2-.2.3-.2h.3c.2-.2.4-.3.6-.4h.3c0-.2.2-.2.3-.3l.5-.3.5-.4c.3-.3.6-.5.9-.9.1-.1.3-.3.4-.5l.2-.2.2-.2c.1-.2.3-.3.4-.5.1-.2.2-.3.4-.5.2-.4.4-.7.6-1.1.2-.4.4-.7.6-1.1.2-.4.3-.8.5-1.2.2-.4.3-.8.4-1.2,0-.1,0-.3.1-.4,0,0-.2,0-.3,0-.2,0-.4,0-.5,0Z"/>
        <path class="cls-1" d="M59.4,36.2c.1.5.3,1.1.6,1.6.1.3.3.5.4.8l.5.8c.2.3.3.5.5.8l.4.8c.3.5.6,1.1.8,1.6l.2.4.2.4c.1.3.2.6.3.9v.4c.2.1.2.3.3.4l.2.9v.9c.2.1.2.3.2.5v.5c0,0,0,.1,0,.2l.2-.2.4-.3h.2c0-.1.2-.3.2-.3l.4-.3c.1,0,.2-.2.3-.2l.2-.5h0c0-.3,0-.4,0-.6v-.5c0-.3,0-.6,0-.9v-.5s0-.5,0-.5v-.2s0-.2,0-.2v-.5c0-.1,0-.3,0-.5v-.2s0,0,0,0h0s0-.2,0-.2c0-.3-.1-.6-.2-.9-.1-.6-.3-1.2-.5-1.8-.2-.6-.4-1.2-.6-1.7-.2-.6-.5-1.1-.8-1.7-.3-.5-.6-1.1-.9-1.6-.3-.5-.7-1-1.1-1.5-.4-.5-.8-1-1.2-1.4-.2-.2-.4-.4-.6-.7,0,0-.1-.1-.2-.2,0,0,0,.1,0,.2,0,.3-.2.5-.3.8,0,.3-.1.6-.2.8,0,.3,0,.6-.1.8,0,.6,0,1.1,0,1.7,0,.6.1,1.1.3,1.7Z"/>
        <path class="cls-1" d="M2.9,41.6l.5.7c.2.2.3.4.5.7l.3.3.3.3c.2.2.4.4.6.6.4.4.8.8,1.2,1.2.2.2.4.4.6.6l.3.2c.1,0,.2.1.3.2.2,0,.3.2.5.3l.5.3.5.3c.1,0,.3.2.4.2,0,0,0-.1,0-.2,0-.1,0-.2,0-.3,0,0,0-.2,0-.2v-.3c0,0,0-.2,0-.3v-.3s0-.7,0-.7h.3c0,.1.7.3.7.3.2,0,.3.1.5.2.1,0,.3.1.4.2.1,0,.2,0,.3.2h.1c0,0-.2-.3-.2-.3h0c0-.3-.2-.4-.3-.6h0c-.2-.3-.3-.5-.5-.8,0-.2-.2-.3-.3-.5-.2-.3-.4-.6-.5-.9-.3-.5-.6-.9-.9-1.4l-.4-.7c-.1-.2-.3-.4-.5-.7,0-.1-.2-.2-.2-.3,0-.1-.1-.2-.2-.3l-.5-.6h0c0,0-.2-.3-.2-.3l-.3-.3-.2-.3-.3-.3c-.3-.4-.7-.8-1.1-1.2l-.5-.6-.6-.6-.6-.6c-.2-.2-.4-.4-.6-.6l-.6-.6c-.2-.2-.4-.4-.6-.6-.4-.4-.8-.7-1.2-1.1l-.3-.3H0c0,.1,0,.3,0,.5,0,.5,0,1.1,0,1.6,0,.3,0,.5,0,.8,0,.3,0,.5.1.8,0,.3.1.5.2.8v.4c.1,0,.2.4.2.4v.4c.1,0,.3.4.3.4,0,.1,0,.3.1.4l.2.4.2.4.2.4.2.4c0,.1.1.2.2.4.3.5.6,1,.9,1.4Z"/>
        <path class="cls-1" d="M7.8,38.5l.5.7c.2.2.3.5.5.7.1.2.3.5.4.7l.4.7c.2.3.4.7.6,1-.1-1.8,0-3.6.4-5.3.4-2.3,1.2-4.4,2-6.4.9-2,1.8-3.7,2.9-5.3.1-.2.2-.4.4-.6.1-.2.2-.4.3-.5.1-.2.2-.4.3-.5,0-.2.2-.4.3-.5.3-.7.6-1.4.7-2.1.3-1.4.3-2.6.2-3.6-.1-1-.3-1.7-.5-2.2-.2.2-.4.4-.7.7-.3.3-.6.6-1,1-.4.4-.7.8-1.1,1.3-.2.2-.4.5-.6.8-.1.1-.2.3-.3.4-.1.1-.2.3-.3.4-.9,1.2-1.8,2.6-2.6,4.1-.1.2-.2.4-.3.6-.1.2-.2.4-.3.6-.1.2-.2.4-.3.6,0,.2-.2.4-.3.7-.3.9-.7,1.8-1,2.8-.1.5-.2,1-.4,1.5,0,.5-.2,1-.3,1.6-.1,1.1-.2,2.2-.2,3.3,0,.8,0,1.7.1,2.5l.2.3Z"/>
        <path class="cls-1" d="M11.7,55.5h0c0,0,0-.1,0-.1h0c-.1-.3-.2-.4-.3-.6-.4-.6-.7-1.3-1-2-.3-.7-.5-1.4-.6-2.1-.1-.6-.2-1.2-.3-1.8,0-.1,0-.2,0-.3-.1,0-.3-.2-.4-.2-.2,0-.3-.2-.5-.3l-.5-.3-.5-.2h0c-.2-.1-.3-.2-.5-.3-.2,0-.3-.2-.5-.2-.2,0-.3-.1-.5-.2l-.5-.2c-.2,0-.3-.1-.5-.2h-.3c0,0-.3-.1-.3-.1-.2,0-.4,0-.5-.1h-.5c-.2-.1-.4-.1-.5-.2-.2,0-.4,0-.5,0,0,0-.2,0-.3,0,0,.1,0,.3.1.4.1.4.3.8.4,1.2.2.4.3.8.5,1.2.2.4.4.8.6,1.1.2.4.4.7.6,1.1.1.2.2.3.4.5.1.2.2.3.4.5l.2.2.2.2c.1.2.3.3.4.5.3.3.6.6.9.9l.5.4.5.3c0,0,.2.1.3.2h.3c.2.3.4.3.6.4h.3c0,.2.2.2.3.2h.3c0,0,.1.1.1.1h.2s.6.2.6.2h.6c.2.1.4.1.6.1h.1s0,0,0,0l-.2-.2Z"/>
        <path class="cls-1" d="M16.3,32.5c-.4.5-.7,1-1.1,1.5-.3.5-.6,1-.9,1.6-.3.5-.5,1.1-.8,1.7-.2.6-.4,1.1-.6,1.7-.2.6-.3,1.2-.5,1.8,0,.3-.1.6-.2.9h0c0,.1,0,.2,0,.2h0c0,0,0,.3,0,.3,0,.1,0,.3,0,.5v.5s0,.2,0,.2v.2s0,.5,0,.5v.5c0,.3,0,.6,0,.9v.5c0,.1,0,.3,0,.4h0c0,.1.2.6.2.6.1,0,.2.2.3.2l.4.3h.2c0,.1.2.3.2.3l.4.3.2.2c0,0,0-.1,0-.2v-.5c0-.2,0-.3,0-.5v-.9c.1,0,.4-.9.4-.9,0-.2,0-.3.1-.4v-.4c.2-.3.3-.6.4-.9l.2-.4.2-.4c.2-.6.5-1.1.8-1.6l.4-.8c.2-.3.3-.5.5-.8l.5-.8c.1-.3.3-.5.4-.8.2-.5.4-1.1.6-1.6.1-.5.2-1.1.3-1.7,0-.6,0-1.1,0-1.7,0-.3,0-.6-.1-.8,0-.3-.1-.6-.2-.8,0-.3-.2-.5-.3-.8,0,0,0-.1,0-.2,0,0-.1.1-.2.2-.2.2-.4.4-.6.7-.4.5-.8.9-1.2,1.4Z"/>
        <path class="cls-1" d="M26.6,23.9c.1.2.2.5.3.8,0,.3,0,1,0,2v12.2c0,1.6.2,2.9.5,3.9.3,1,.8,1.9,1.5,2.7.7.8,1.6,1.3,2.7,1.6,1.1.3,2.4.5,3.9.5h0c1.2,0,2.3-.1,3.2-.4.1,0,.2,0,.3-.1.8-.2,1.4-.6,2-1,.6-.5,1.2-1,1.6-1.6.5-.7.8-1.5,1.1-2.5.2-1,.4-2.1.4-3.5v-9.4c-1.1,0-2.2.4-3.1,1v8c0,1.5,0,2.7-.2,3.6-.2.9-.5,1.7-.9,2.3-.4.6-.9,1-1.5,1.3-.6-1.8-.8-4-.8-6.7s.1-3.2.4-4.5c.2-1.4.6-2.5,1.2-3.5.5-1,1.2-1.7,2-2.2h0c.8-.5,1.8-.8,2.9-.8s.1,0,.2,0c1.2,0,2.2.4,3.1,1.2,1,.8,1.7,2.1,2.3,3.9.5,1.8.8,4,.8,6.7s-.2,4.2-.7,5.8c-.5,1.7-1.2,2.9-2.1,3.8-.9.9-2.1,1.3-3.4,1.3s-2.9-.6-4-1.7c-1.2.3-2.5.3-3.7.2h0c.9,1.1,1.9,1.9,3.1,2.4,1.2.5,2.6.7,4.1.7,2.1,0,3.9-.5,5.5-1.5,1.6-1,2.8-2.5,3.7-4.5.9-2,1.3-4.4,1.3-7.3s-.4-5-1.1-6.9c-.8-1.9-1.9-3.3-3.4-4.3-1.5-1-3.3-1.4-5.5-1.5,0-.7,0-1.3.1-1.6,0-.4.3-.7.5-1,.3-.2.8-.4,1.5-.6v-.9h-7.4v.9c.8.2,1.3.4,1.5.6.2.2.4.5.5.9.1.4.2,1.1.2,2.1-.9.3-1.7.6-2.4,1.1-1.6,1-2.8,2.5-3.6,4.5-.8,2-1.3,4.3-1.3,7.1s.2,4.2.7,5.8c0,.3.2.6.3.9-.4,0-.8-.1-1.1-.2-.6-.2-1.2-.5-1.6-1-.5-.5-.8-1.1-1.1-1.9-.3-.8-.4-1.8-.4-3v-13.1c0-1,0-1.7.1-2.2,0-.4.3-.8.6-1,.3-.2.8-.4,1.4-.6v-.9h-7.8v.9c.6.2,1,.3,1.2.5.2.1.4.3.5.5Z"/>
        <polygon class="cls-1" points="38 62 37.9 62 38 62 38 62"/>
        <polygon class="cls-1" points="39.1 10.4 38 13.2 35.1 14.3 38 15.5 39.1 18.3 40.2 15.5 43 14.3 40.2 13.2 39.1 10.4"/>
      </g>
    </g>
  </g>
</svg>